<svg width="1584" height="396" viewBox="0 0 1584 396" fill="none" xmlns="http://www.w3.org/2000/svg">
<rect width="1584" height="396" fill="url(#paint0_linear_204_16)"/>
<path d="M728.79 229.42L723.354 253H719.25L714.426 232.912L709.638 253H705.534L700.062 229.42H703.302L707.694 249.652L712.338 229.42H716.514L721.194 249.652L725.55 229.42H728.79ZM739.509 229.42L746.745 253H743.433L741.885 247.528H733.209L731.661 253H728.529L735.729 229.42H739.509ZM737.565 232.228L733.965 244.792H741.129L737.565 232.228ZM760.721 253L752.945 233.092V253H749.921V229.42H754.817L762.449 249.328V229.42H765.473V253H760.721ZM777.462 228.988C780.318 228.988 782.514 229.804 784.05 231.436C785.61 233.044 786.39 235.372 786.39 238.42V244.324C786.39 247.252 785.61 249.508 784.05 251.092C782.514 252.652 780.258 253.432 777.282 253.432C775.242 253.432 773.106 253.36 770.874 253.216V229.132C773.034 229.036 775.23 228.988 777.462 228.988ZM777.282 231.58C776.538 231.58 775.422 231.604 773.934 231.652V250.588C775.35 250.732 776.466 250.804 777.282 250.804C779.13 250.804 780.594 250.276 781.674 249.22C782.778 248.14 783.33 246.592 783.33 244.576V238.204C783.33 236.02 782.802 234.376 781.746 233.272C780.69 232.144 779.202 231.58 777.282 231.58ZM803.86 229.42V232.192H794.5V239.644H803.14V242.38H794.5V250.228H803.86V253H791.44V229.42H803.86ZM815.177 228.988C818.009 228.988 820.097 229.54 821.441 230.644C822.785 231.748 823.457 233.296 823.457 235.288V236.188C823.457 237.58 823.073 238.816 822.305 239.896C821.537 240.952 820.433 241.696 818.993 242.128L825.113 253H821.693L815.969 242.776C815.777 242.8 815.393 242.812 814.817 242.812C813.857 242.812 812.909 242.776 811.973 242.704V253H808.913V229.132C811.601 229.036 813.689 228.988 815.177 228.988ZM815.105 231.58C814.313 231.58 813.269 231.604 811.973 231.652V240.148C813.269 240.268 814.349 240.328 815.213 240.328C818.669 240.328 820.397 238.924 820.397 236.116V235.396C820.397 234.1 819.977 233.14 819.137 232.516C818.297 231.892 816.953 231.58 815.105 231.58ZM834.329 228.988C835.625 228.988 837.317 229.18 839.405 229.564L839.333 232.264C837.365 231.88 835.697 231.688 834.329 231.688C832.937 231.688 831.929 231.964 831.305 232.516C830.705 233.068 830.405 233.908 830.405 235.036V235.972C830.405 236.572 830.477 237.052 830.621 237.412C830.789 237.748 831.077 238.048 831.485 238.312C831.893 238.552 832.505 238.804 833.321 239.068L836.669 240.184C838.277 240.736 839.405 241.468 840.053 242.38C840.725 243.292 841.061 244.624 841.061 246.376V247.06C841.061 249.196 840.437 250.792 839.189 251.848C837.965 252.904 835.949 253.432 833.141 253.432C831.773 253.432 830.021 253.192 827.885 252.712L827.957 249.94C829.949 250.42 831.653 250.66 833.069 250.66C834.869 250.66 836.141 250.396 836.885 249.868C837.629 249.316 838.001 248.464 838.001 247.312V246.124C838.001 245.284 837.809 244.648 837.425 244.216C837.065 243.76 836.417 243.376 835.481 243.064L831.773 241.84C830.117 241.288 828.965 240.58 828.317 239.716C827.669 238.828 827.345 237.496 827.345 235.72V235.324C827.345 233.236 827.897 231.664 829.001 230.608C830.129 229.528 831.905 228.988 834.329 228.988ZM852.511 228.988C855.199 228.988 857.179 229.66 858.451 231.004C859.723 232.348 860.359 234.256 860.359 236.728V245.692C860.359 248.164 859.723 250.072 858.451 251.416C857.179 252.76 855.199 253.432 852.511 253.432C849.823 253.432 847.843 252.76 846.571 251.416C845.299 250.072 844.663 248.164 844.663 245.692V236.728C844.663 234.256 845.299 232.348 846.571 231.004C847.843 229.66 849.823 228.988 852.511 228.988ZM852.511 231.688C850.927 231.688 849.727 232.084 848.911 232.876C848.119 233.668 847.723 234.832 847.723 236.368V246.016C847.723 247.552 848.119 248.728 848.911 249.544C849.727 250.336 850.927 250.732 852.511 250.732C854.095 250.732 855.283 250.336 856.075 249.544C856.891 248.728 857.299 247.552 857.299 246.016V236.404C857.299 234.868 856.891 233.704 856.075 232.912C855.283 232.096 854.095 231.688 852.511 231.688ZM876.385 253L868.609 233.092V253H865.585V229.42H870.481L878.113 249.328V229.42H881.137V253H876.385ZM726.682 267.988C727.618 267.988 728.626 268.084 729.706 268.276C730.81 268.444 731.458 268.54 731.65 268.564L731.578 271.264C729.466 270.88 727.834 270.688 726.682 270.688C725.05 270.688 723.874 271.024 723.154 271.696C722.434 272.368 722.074 273.484 722.074 275.044V285.34C722.074 286.9 722.422 288.016 723.118 288.688C723.838 289.336 725.026 289.66 726.682 289.66C727.834 289.66 729.466 289.468 731.578 289.084L731.65 291.856C731.458 291.88 730.81 291.976 729.706 292.144C728.626 292.336 727.618 292.432 726.682 292.432C723.922 292.432 721.954 291.844 720.778 290.668C719.602 289.492 719.014 287.656 719.014 285.16V275.26C719.014 272.764 719.602 270.928 720.778 269.752C721.954 268.576 723.922 267.988 726.682 267.988ZM745.098 268.42L752.334 292H749.022L747.474 286.528H738.798L737.25 292H734.118L741.318 268.42H745.098ZM743.154 271.228L739.554 283.792H746.718L743.154 271.228ZM761.775 267.988C764.607 267.988 766.695 268.54 768.039 269.644C769.383 270.748 770.055 272.296 770.055 274.288V275.188C770.055 276.58 769.671 277.816 768.903 278.896C768.135 279.952 767.031 280.696 765.591 281.128L771.711 292H768.291L762.567 281.776C762.375 281.8 761.991 281.812 761.415 281.812C760.455 281.812 759.507 281.776 758.571 281.704V292H755.511V268.132C758.199 268.036 760.287 267.988 761.775 267.988ZM761.703 270.58C760.911 270.58 759.867 270.604 758.571 270.652V279.148C759.867 279.268 760.947 279.328 761.811 279.328C765.267 279.328 766.995 277.924 766.995 275.116V274.396C766.995 273.1 766.575 272.14 765.735 271.516C764.895 270.892 763.551 270.58 761.703 270.58ZM790.65 268.42L783.558 292H779.526L772.65 268.42H775.89L781.542 289.048L787.41 268.42H790.65ZM800.962 268.42L808.198 292H804.886L803.338 286.528H794.662L793.114 292H789.982L797.182 268.42H800.962ZM799.018 271.228L795.418 283.792H802.582L799.018 271.228ZM814.434 268.42V289.3H823.794V292H811.374V268.42H814.434ZM843.061 268.42V292H840.001V281.2H830.641V292H827.581V268.42H830.641V278.464H840.001V268.42H843.061ZM856.132 267.988C858.82 267.988 860.8 268.66 862.072 270.004C863.344 271.348 863.98 273.256 863.98 275.728V284.692C863.98 287.164 863.344 289.072 862.072 290.416C860.8 291.76 858.82 292.432 856.132 292.432C853.444 292.432 851.464 291.76 850.192 290.416C848.92 289.072 848.284 287.164 848.284 284.692V275.728C848.284 273.256 848.92 271.348 850.192 270.004C851.464 268.66 853.444 267.988 856.132 267.988ZM856.132 270.688C854.548 270.688 853.348 271.084 852.532 271.876C851.74 272.668 851.344 273.832 851.344 275.368V285.016C851.344 286.552 851.74 287.728 852.532 288.544C853.348 289.336 854.548 289.732 856.132 289.732C857.716 289.732 858.904 289.336 859.696 288.544C860.512 287.728 860.92 286.552 860.92 285.016V275.404C860.92 273.868 860.512 272.704 859.696 271.912C858.904 271.096 857.716 270.688 856.132 270.688Z" fill="white"/>
<path d="M728.79 229.42L729.765 229.645L730.047 228.42H728.79V229.42ZM723.354 253V254H724.15L724.329 253.225L723.354 253ZM719.25 253L718.278 253.234L718.462 254H719.25V253ZM714.426 232.912L715.398 232.678L713.453 232.68L714.426 232.912ZM709.638 253V254H710.428L710.611 253.232L709.638 253ZM705.534 253L704.56 253.226L704.74 254H705.534V253ZM700.062 229.42V228.42H698.803L699.088 229.646L700.062 229.42ZM703.302 229.42L704.279 229.208L704.108 228.42H703.302V229.42ZM707.694 249.652L706.717 249.864L708.669 249.876L707.694 249.652ZM712.338 229.42V228.42H711.542L711.363 229.196L712.338 229.42ZM716.514 229.42L717.488 229.195L717.309 228.42H716.514V229.42ZM721.194 249.652L720.22 249.877L722.172 249.862L721.194 249.652ZM725.55 229.42V228.42H724.742L724.573 229.21L725.55 229.42ZM727.816 229.195L722.38 252.775L724.329 253.225L729.765 229.645L727.816 229.195ZM723.354 252H719.25V254H723.354V252ZM720.222 252.766L715.398 232.678L713.454 233.146L718.278 253.234L720.222 252.766ZM713.453 232.68L708.665 252.768L710.611 253.232L715.399 233.144L713.453 232.68ZM709.638 252H705.534V254H709.638V252ZM706.508 252.774L701.036 229.194L699.088 229.646L704.56 253.226L706.508 252.774ZM700.062 230.42H703.302V228.42H700.062V230.42ZM702.325 229.632L706.717 249.864L708.671 249.44L704.279 229.208L702.325 229.632ZM708.669 249.876L713.313 229.644L711.363 229.196L706.719 249.428L708.669 249.876ZM712.338 230.42H716.514V228.42H712.338V230.42ZM715.54 229.645L720.22 249.877L722.168 249.427L717.488 229.195L715.54 229.645ZM722.172 249.862L726.528 229.63L724.573 229.21L720.217 249.442L722.172 249.862ZM725.55 230.42H728.79V228.42H725.55V230.42ZM739.509 229.42L740.465 229.127L740.248 228.42H739.509V229.42ZM746.745 253V254H748.097L747.701 252.707L746.745 253ZM743.433 253L742.47 253.272L742.676 254H743.433V253ZM741.885 247.528L742.847 247.256L742.641 246.528H741.885V247.528ZM733.209 247.528V246.528H732.452L732.246 247.256L733.209 247.528ZM731.661 253V254H732.417L732.623 253.272L731.661 253ZM728.529 253L727.572 252.708L727.178 254H728.529V253ZM735.729 229.42V228.42H734.988L734.772 229.128L735.729 229.42ZM737.565 232.228L738.527 231.955L737.569 228.581L736.603 231.953L737.565 232.228ZM733.965 244.792L733.003 244.517L732.638 245.792H733.965V244.792ZM741.129 244.792V245.792H742.452L742.091 244.519L741.129 244.792ZM738.553 229.713L745.789 253.293L747.701 252.707L740.465 229.127L738.553 229.713ZM746.745 252H743.433V254H746.745V252ZM744.395 252.728L742.847 247.256L740.922 247.8L742.47 253.272L744.395 252.728ZM741.885 246.528H733.209V248.528H741.885V246.528ZM732.246 247.256L730.698 252.728L732.623 253.272L734.171 247.8L732.246 247.256ZM731.661 252H728.529V254H731.661V252ZM729.485 253.292L736.685 229.712L734.772 229.128L727.572 252.708L729.485 253.292ZM735.729 230.42H739.509V228.42H735.729V230.42ZM736.603 231.953L733.003 244.517L734.926 245.067L738.526 232.503L736.603 231.953ZM733.965 245.792H741.129V243.792H733.965V245.792ZM742.091 244.519L738.527 231.955L736.603 232.501L740.167 245.065L742.091 244.519ZM760.721 253L759.789 253.364L760.038 254H760.721V253ZM752.945 233.092L753.876 232.728L751.945 233.092H752.945ZM752.945 253V254H753.945V253H752.945ZM749.921 253H748.921V254H749.921V253ZM749.921 229.42V228.42H748.921V229.42H749.921ZM754.817 229.42L755.75 229.062L755.504 228.42H754.817V229.42ZM762.449 249.328L761.515 249.686L763.449 249.328H762.449ZM762.449 229.42V228.42H761.449V229.42H762.449ZM765.473 229.42H766.473V228.42H765.473V229.42ZM765.473 253V254H766.473V253H765.473ZM761.652 252.636L753.876 232.728L752.013 233.456L759.789 253.364L761.652 252.636ZM751.945 233.092V253H753.945V233.092H751.945ZM752.945 252H749.921V254H752.945V252ZM750.921 253V229.42H748.921V253H750.921ZM749.921 230.42H754.817V228.42H749.921V230.42ZM753.883 229.778L761.515 249.686L763.382 248.97L755.75 229.062L753.883 229.778ZM763.449 249.328V229.42H761.449V249.328H763.449ZM762.449 230.42H765.473V228.42H762.449V230.42ZM764.473 229.42V253H766.473V229.42H764.473ZM765.473 252H760.721V254H765.473V252ZM784.05 231.436L783.322 232.121L783.327 232.127L783.332 232.132L784.05 231.436ZM784.05 251.092L783.337 250.39L783.337 250.39L784.05 251.092ZM770.874 253.216H769.874V254.154L770.809 254.214L770.874 253.216ZM770.874 229.132L770.829 228.133L769.874 228.175V229.132H770.874ZM773.934 231.652L773.902 230.653L772.934 230.684V231.652H773.934ZM773.934 250.588H772.934V251.491L773.833 251.583L773.934 250.588ZM781.674 249.22L782.373 249.935L782.373 249.935L781.674 249.22ZM781.746 233.272L781.016 233.955L781.023 233.963L781.746 233.272ZM777.462 229.988C780.122 229.988 782.023 230.742 783.322 232.121L784.778 230.751C783.004 228.866 780.513 227.988 777.462 227.988V229.988ZM783.332 232.132C784.654 233.495 785.39 235.536 785.39 238.42H787.39C787.39 235.208 786.566 232.593 784.768 230.74L783.332 232.132ZM785.39 238.42V244.324H787.39V238.42H785.39ZM785.39 244.324C785.39 247.076 784.66 249.047 783.337 250.39L784.762 251.794C786.559 249.969 787.39 247.428 787.39 244.324H785.39ZM783.337 250.39C782.049 251.699 780.089 252.432 777.282 252.432V254.432C780.427 254.432 782.979 253.605 784.762 251.794L783.337 250.39ZM777.282 252.432C775.265 252.432 773.151 252.361 770.938 252.218L770.809 254.214C773.061 254.359 775.218 254.432 777.282 254.432V252.432ZM771.874 253.216V229.132H769.874V253.216H771.874ZM770.918 230.131C773.063 230.036 775.244 229.988 777.462 229.988V227.988C775.215 227.988 773.005 228.036 770.829 228.133L770.918 230.131ZM777.282 230.58C776.521 230.58 775.392 230.604 773.902 230.653L773.966 232.651C775.452 232.604 776.555 232.58 777.282 232.58V230.58ZM772.934 231.652V250.588H774.934V231.652H772.934ZM773.833 251.583C775.262 251.728 776.416 251.804 777.282 251.804V249.804C776.515 249.804 775.438 249.736 774.035 249.593L773.833 251.583ZM777.282 251.804C779.329 251.804 781.066 251.213 782.373 249.935L780.975 248.505C780.122 249.339 778.93 249.804 777.282 249.804V251.804ZM782.373 249.935C783.723 248.614 784.33 246.775 784.33 244.576H782.33C782.33 246.409 781.833 247.666 780.975 248.505L782.373 249.935ZM784.33 244.576V238.204H782.33V244.576H784.33ZM784.33 238.204C784.33 235.873 783.767 233.938 782.468 232.581L781.023 233.963C781.837 234.814 782.33 236.167 782.33 238.204H784.33ZM782.476 232.589C781.187 231.212 779.407 230.58 777.282 230.58V232.58C778.997 232.58 780.193 233.076 781.016 233.955L782.476 232.589ZM803.86 229.42H804.86V228.42H803.86V229.42ZM803.86 232.192V233.192H804.86V232.192H803.86ZM794.5 232.192V231.192H793.5V232.192H794.5ZM794.5 239.644H793.5V240.644H794.5V239.644ZM803.14 239.644H804.14V238.644H803.14V239.644ZM803.14 242.38V243.38H804.14V242.38H803.14ZM794.5 242.38V241.38H793.5V242.38H794.5ZM794.5 250.228H793.5V251.228H794.5V250.228ZM803.86 250.228H804.86V249.228H803.86V250.228ZM803.86 253V254H804.86V253H803.86ZM791.44 253H790.44V254H791.44V253ZM791.44 229.42V228.42H790.44V229.42H791.44ZM802.86 229.42V232.192H804.86V229.42H802.86ZM803.86 231.192H794.5V233.192H803.86V231.192ZM793.5 232.192V239.644H795.5V232.192H793.5ZM794.5 240.644H803.14V238.644H794.5V240.644ZM802.14 239.644V242.38H804.14V239.644H802.14ZM803.14 241.38H794.5V243.38H803.14V241.38ZM793.5 242.38V250.228H795.5V242.38H793.5ZM794.5 251.228H803.86V249.228H794.5V251.228ZM802.86 250.228V253H804.86V250.228H802.86ZM803.86 252H791.44V254H803.86V252ZM792.44 253V229.42H790.44V253H792.44ZM791.44 230.42H803.86V228.42H791.44V230.42ZM821.441 230.644L820.806 231.417L820.806 231.417L821.441 230.644ZM822.305 239.896L823.114 240.484L823.12 240.476L822.305 239.896ZM818.993 242.128L818.706 241.17L817.508 241.529L818.121 242.619L818.993 242.128ZM825.113 253V254H826.823L825.984 252.509L825.113 253ZM821.693 253L820.82 253.489L821.107 254H821.693V253ZM815.969 242.776L816.841 242.287L816.513 241.7L815.845 241.784L815.969 242.776ZM811.973 242.704L812.05 241.707L810.973 241.624V242.704H811.973ZM811.973 253V254H812.973V253H811.973ZM808.913 253H807.913V254H808.913V253ZM808.913 229.132L808.877 228.133L807.913 228.167V229.132H808.913ZM811.973 231.652L811.936 230.653L810.973 230.688V231.652H811.973ZM811.973 240.148H810.973V241.06L811.881 241.144L811.973 240.148ZM819.137 232.516L818.541 233.319L818.541 233.319L819.137 232.516ZM815.177 229.988C817.913 229.988 819.723 230.527 820.806 231.417L822.076 229.871C820.471 228.553 818.105 227.988 815.177 227.988V229.988ZM820.806 231.417C821.884 232.302 822.457 233.546 822.457 235.288H824.457C824.457 233.046 823.686 231.194 822.076 229.871L820.806 231.417ZM822.457 235.288V236.188H824.457V235.288H822.457ZM822.457 236.188C822.457 237.383 822.131 238.415 821.49 239.316L823.12 240.476C824.015 239.217 824.457 237.777 824.457 236.188H822.457ZM821.496 239.308C820.876 240.161 819.969 240.791 818.706 241.17L819.28 243.086C820.897 242.601 822.198 241.743 823.114 240.484L821.496 239.308ZM818.121 242.619L824.241 253.491L825.984 252.509L819.864 241.637L818.121 242.619ZM825.113 252H821.693V254H825.113V252ZM822.565 252.511L816.841 242.287L815.096 243.265L820.82 253.489L822.565 252.511ZM815.845 241.784C815.725 241.799 815.403 241.812 814.817 241.812V243.812C815.383 243.812 815.829 243.801 816.093 243.768L815.845 241.784ZM814.817 241.812C813.882 241.812 812.96 241.777 812.05 241.707L811.896 243.701C812.858 243.775 813.832 243.812 814.817 243.812V241.812ZM810.973 242.704V253H812.973V242.704H810.973ZM811.973 252H808.913V254H811.973V252ZM809.913 253V229.132H807.913V253H809.913ZM808.949 230.131C811.633 230.036 813.707 229.988 815.177 229.988V227.988C813.671 227.988 811.569 228.036 808.877 228.133L808.949 230.131ZM815.105 230.58C814.295 230.58 813.238 230.604 811.936 230.653L812.01 232.651C813.3 232.604 814.33 232.58 815.105 232.58V230.58ZM810.973 231.652V240.148H812.973V231.652H810.973ZM811.881 241.144C813.194 241.265 814.307 241.328 815.213 241.328V239.328C814.391 239.328 813.344 239.271 812.065 239.152L811.881 241.144ZM815.213 241.328C817.05 241.328 818.614 240.959 819.731 240.051C820.888 239.111 821.397 237.735 821.397 236.116H819.397C819.397 237.305 819.041 238.035 818.47 238.499C817.86 238.995 816.831 239.328 815.213 239.328V241.328ZM821.397 236.116V235.396H819.397V236.116H821.397ZM821.397 235.396C821.397 233.868 820.888 232.571 819.733 231.713L818.541 233.319C819.066 233.709 819.397 234.332 819.397 235.396H821.397ZM819.733 231.713C818.632 230.895 817.022 230.58 815.105 230.58V232.58C816.884 232.58 817.962 232.889 818.541 233.319L819.733 231.713ZM839.405 229.564L840.404 229.591L840.427 228.735L839.585 228.58L839.405 229.564ZM839.333 232.264L839.141 233.245L840.301 233.472L840.332 232.291L839.333 232.264ZM831.305 232.516L830.642 231.767L830.635 231.773L830.628 231.78L831.305 232.516ZM830.621 237.412L829.692 237.783L829.708 237.822L829.726 237.859L830.621 237.412ZM831.485 238.312L830.941 239.152L830.959 239.163L830.978 239.174L831.485 238.312ZM833.321 239.068L833.637 238.119L833.628 238.117L833.321 239.068ZM836.669 240.184L836.993 239.238L836.985 239.235L836.669 240.184ZM840.053 242.38L839.237 242.959L839.242 242.966L839.248 242.973L840.053 242.38ZM839.189 251.848L838.543 251.085L838.535 251.091L839.189 251.848ZM827.885 252.712L826.885 252.686L826.864 253.508L827.665 253.688L827.885 252.712ZM827.957 249.94L828.191 248.968L826.989 248.678L826.957 249.914L827.957 249.94ZM836.885 249.868L837.463 250.684L837.472 250.677L837.48 250.671L836.885 249.868ZM837.425 244.216L836.64 244.836L836.658 244.859L836.677 244.88L837.425 244.216ZM835.481 243.064L835.797 242.115L835.794 242.114L835.481 243.064ZM831.773 241.84L831.456 242.789L831.459 242.79L831.773 241.84ZM828.317 239.716L827.509 240.306L827.517 240.316L828.317 239.716ZM829.001 230.608L829.692 231.331L829.692 231.33L829.001 230.608ZM834.329 229.988C835.538 229.988 837.163 230.168 839.224 230.548L839.585 228.58C837.47 228.192 835.711 227.988 834.329 227.988V229.988ZM838.405 229.537L838.333 232.237L840.332 232.291L840.404 229.591L838.405 229.537ZM839.524 231.283C837.519 230.891 835.783 230.688 834.329 230.688V232.688C835.61 232.688 837.21 232.869 839.141 233.245L839.524 231.283ZM834.329 230.688C832.844 230.688 831.537 230.975 830.642 231.767L831.967 233.265C832.32 232.953 833.029 232.688 834.329 232.688V230.688ZM830.628 231.78C829.752 232.585 829.405 233.739 829.405 235.036H831.405C831.405 234.077 831.657 233.551 831.982 233.252L830.628 231.78ZM829.405 235.036V235.972H831.405V235.036H829.405ZM829.405 235.972C829.405 236.637 829.482 237.259 829.692 237.783L831.549 237.041C831.471 236.845 831.405 236.507 831.405 235.972H829.405ZM829.726 237.859C829.994 238.395 830.426 238.818 830.941 239.152L832.028 237.472C831.727 237.278 831.583 237.101 831.515 236.965L829.726 237.859ZM830.978 239.174C831.48 239.469 832.174 239.748 833.013 240.019L833.628 238.117C832.836 237.86 832.305 237.635 831.992 237.45L830.978 239.174ZM833.004 240.017L836.352 241.133L836.985 239.235L833.637 238.119L833.004 240.017ZM836.344 241.13C837.851 241.647 838.759 242.285 839.237 242.959L840.868 241.801C840.05 240.651 838.702 239.825 836.993 239.238L836.344 241.13ZM839.248 242.973C839.741 243.642 840.061 244.728 840.061 246.376H842.061C842.061 244.52 841.709 242.942 840.858 241.787L839.248 242.973ZM840.061 246.376V247.06H842.061V246.376H840.061ZM840.061 247.06C840.061 248.998 839.502 250.273 838.543 251.085L839.835 252.611C841.372 251.311 842.061 249.394 842.061 247.06H840.061ZM838.535 251.091C837.586 251.91 835.87 252.432 833.141 252.432V254.432C836.028 254.432 838.343 253.898 839.842 252.605L838.535 251.091ZM833.141 252.432C831.877 252.432 830.205 252.209 828.104 251.736L827.665 253.688C829.836 254.175 831.668 254.432 833.141 254.432V252.432ZM828.884 252.738L828.956 249.966L826.957 249.914L826.885 252.686L828.884 252.738ZM827.722 250.912C829.76 251.403 831.547 251.66 833.069 251.66V249.66C831.758 249.66 830.137 249.437 828.191 248.968L827.722 250.912ZM833.069 251.66C834.907 251.66 836.451 251.402 837.463 250.684L836.306 249.052C835.83 249.39 834.83 249.66 833.069 249.66V251.66ZM837.48 250.671C838.541 249.885 839.001 248.695 839.001 247.312H837.001C837.001 248.233 836.717 248.747 836.289 249.065L837.48 250.671ZM839.001 247.312V246.124H837.001V247.312H839.001ZM839.001 246.124C839.001 245.148 838.779 244.235 838.172 243.552L836.677 244.88C836.838 245.061 837.001 245.42 837.001 246.124H839.001ZM838.209 243.596C837.671 242.914 836.803 242.451 835.797 242.115L835.164 244.013C836.03 244.301 836.458 244.606 836.64 244.836L838.209 243.596ZM835.794 242.114L832.086 240.89L831.459 242.79L835.167 244.014L835.794 242.114ZM832.089 240.891C830.517 240.367 829.588 239.745 829.117 239.116L827.517 240.316C828.341 241.415 829.716 242.209 831.456 242.789L832.089 240.891ZM829.124 239.127C828.657 238.486 828.345 237.404 828.345 235.72H826.345C826.345 237.588 826.68 239.17 827.509 240.305L829.124 239.127ZM828.345 235.72V235.324H826.345V235.72H828.345ZM828.345 235.324C828.345 233.406 828.849 232.137 829.692 231.331L828.309 229.885C826.944 231.191 826.345 233.066 826.345 235.324H828.345ZM829.692 231.33C830.554 230.505 832.025 229.988 834.329 229.988V227.988C831.785 227.988 829.703 228.551 828.309 229.886L829.692 231.33ZM858.451 231.004L857.724 231.691L857.724 231.691L858.451 231.004ZM858.451 251.416L857.724 250.729L857.724 250.729L858.451 251.416ZM846.571 251.416L845.844 252.103L845.844 252.103L846.571 251.416ZM846.571 231.004L847.297 231.691L847.297 231.691L846.571 231.004ZM848.911 232.876L848.214 232.158L848.209 232.164L848.203 232.169L848.911 232.876ZM848.911 249.544L848.193 250.24L848.203 250.251L848.214 250.262L848.911 249.544ZM856.075 249.544L856.782 250.251L856.782 250.251L856.075 249.544ZM856.075 232.912L855.357 233.608L855.367 233.619L855.378 233.63L856.075 232.912ZM852.511 229.988C855.049 229.988 856.713 230.623 857.724 231.691L859.177 230.317C857.644 228.697 855.348 227.988 852.511 227.988V229.988ZM857.724 231.691C858.768 232.794 859.359 234.424 859.359 236.728H861.359C861.359 234.088 860.677 231.902 859.177 230.317L857.724 231.691ZM859.359 236.728V245.692H861.359V236.728H859.359ZM859.359 245.692C859.359 247.996 858.768 249.626 857.724 250.729L859.177 252.103C860.677 250.518 861.359 248.332 861.359 245.692H859.359ZM857.724 250.729C856.713 251.797 855.049 252.432 852.511 252.432V254.432C855.348 254.432 857.644 253.723 859.177 252.103L857.724 250.729ZM852.511 252.432C849.972 252.432 848.308 251.797 847.297 250.729L845.844 252.103C847.377 253.723 849.673 254.432 852.511 254.432V252.432ZM847.297 250.729C846.253 249.626 845.663 247.996 845.663 245.692H843.663C843.663 248.332 844.344 250.518 845.844 252.103L847.297 250.729ZM845.663 245.692V236.728H843.663V245.692H845.663ZM845.663 236.728C845.663 234.424 846.253 232.794 847.297 231.691L845.844 230.317C844.344 231.902 843.663 234.088 843.663 236.728H845.663ZM847.297 231.691C848.308 230.623 849.972 229.988 852.511 229.988V227.988C849.673 227.988 847.377 228.697 845.844 230.317L847.297 231.691ZM852.511 230.688C850.77 230.688 849.28 231.124 848.214 232.158L849.607 233.594C850.173 233.044 851.083 232.688 852.511 232.688V230.688ZM848.203 232.169C847.163 233.209 846.723 234.668 846.723 236.368H848.723C848.723 234.996 849.074 234.127 849.618 233.583L848.203 232.169ZM846.723 236.368V246.016H848.723V236.368H846.723ZM846.723 246.016C846.723 247.719 847.164 249.18 848.193 250.24L849.628 248.848C849.073 248.276 848.723 247.385 848.723 246.016H846.723ZM848.214 250.262C849.28 251.296 850.77 251.732 852.511 251.732V249.732C851.083 249.732 850.173 249.376 849.607 248.826L848.214 250.262ZM852.511 251.732C854.249 251.732 855.736 251.297 856.782 250.251L855.367 248.837C854.829 249.375 853.94 249.732 852.511 249.732V251.732ZM856.782 250.251C857.841 249.192 858.299 247.726 858.299 246.016H856.299C856.299 247.378 855.94 248.264 855.367 248.837L856.782 250.251ZM858.299 246.016V236.404H856.299V246.016H858.299ZM858.299 236.404C858.299 234.696 857.842 233.234 856.771 232.194L855.378 233.63C855.94 234.174 856.299 235.04 856.299 236.404H858.299ZM856.792 232.216C855.748 231.139 854.256 230.688 852.511 230.688V232.688C853.933 232.688 854.817 233.053 855.357 233.608L856.792 232.216ZM876.385 253L875.453 253.364L875.702 254H876.385V253ZM868.609 233.092L869.54 232.728L867.609 233.092H868.609ZM868.609 253V254H869.609V253H868.609ZM865.585 253H864.585V254H865.585V253ZM865.585 229.42V228.42H864.585V229.42H865.585ZM870.481 229.42L871.415 229.062L871.168 228.42H870.481V229.42ZM878.113 249.328L877.179 249.686L879.113 249.328H878.113ZM878.113 229.42V228.42H877.113V229.42H878.113ZM881.137 229.42H882.137V228.42H881.137V229.42ZM881.137 253V254H882.137V253H881.137ZM877.316 252.636L869.54 232.728L867.677 233.456L875.453 253.364L877.316 252.636ZM867.609 233.092V253H869.609V233.092H867.609ZM868.609 252H865.585V254H868.609V252ZM866.585 253V229.42H864.585V253H866.585ZM865.585 230.42H870.481V228.42H865.585V230.42ZM869.547 229.778L877.179 249.686L879.047 248.97L871.415 229.062L869.547 229.778ZM879.113 249.328V229.42H877.113V249.328H879.113ZM878.113 230.42H881.137V228.42H878.113V230.42ZM880.137 229.42V253H882.137V229.42H880.137ZM881.137 252H876.385V254H881.137V252ZM729.706 268.276L729.531 269.261L729.543 269.263L729.556 269.265L729.706 268.276ZM731.65 268.564L732.65 268.591L732.674 267.684L731.774 267.572L731.65 268.564ZM731.578 271.264L731.399 272.248L732.547 272.456L732.578 271.291L731.578 271.264ZM723.118 288.688L722.424 289.407L722.436 289.42L722.449 289.431L723.118 288.688ZM731.578 289.084L732.578 289.058L732.548 287.891L731.399 288.1L731.578 289.084ZM731.65 291.856L731.774 292.848L732.673 292.736L732.65 291.83L731.65 291.856ZM729.706 292.144L729.556 291.155L729.543 291.157L729.531 291.159L729.706 292.144ZM720.778 290.668L720.071 291.375L720.071 291.375L720.778 290.668ZM720.778 269.752L720.071 269.045L720.071 269.045L720.778 269.752ZM726.682 268.988C727.55 268.988 728.499 269.077 729.531 269.261L729.881 267.291C728.753 267.091 727.686 266.988 726.682 266.988V268.988ZM729.556 269.265C730.652 269.431 731.317 269.53 731.526 269.556L731.774 267.572C731.599 267.55 730.969 267.457 729.857 267.287L729.556 269.265ZM730.65 268.537L730.578 271.237L732.578 271.291L732.65 268.591L730.65 268.537ZM731.757 270.28C729.627 269.893 727.925 269.688 726.682 269.688V271.688C727.743 271.688 729.305 271.867 731.399 272.248L731.757 270.28ZM726.682 269.688C724.953 269.688 723.466 270.037 722.472 270.965L723.836 272.427C724.282 272.011 725.147 271.688 726.682 271.688V269.688ZM722.472 270.965C721.457 271.912 721.074 273.365 721.074 275.044H723.074C723.074 273.603 723.411 272.824 723.836 272.427L722.472 270.965ZM721.074 275.044V285.34H723.074V275.044H721.074ZM721.074 285.34C721.074 287.011 721.441 288.459 722.424 289.407L723.813 287.969C723.403 287.573 723.074 286.789 723.074 285.34H721.074ZM722.449 289.431C723.445 290.328 724.941 290.66 726.682 290.66V288.66C725.112 288.66 724.231 288.344 723.787 287.945L722.449 289.431ZM726.682 290.66C727.925 290.66 729.627 290.455 731.757 290.068L731.399 288.1C729.305 288.481 727.743 288.66 726.682 288.66V290.66ZM730.578 289.11L730.65 291.882L732.65 291.83L732.578 289.058L730.578 289.11ZM731.526 290.864C731.317 290.89 730.652 290.989 729.556 291.155L729.857 293.133C730.969 292.963 731.599 292.87 731.774 292.848L731.526 290.864ZM729.531 291.159C728.499 291.343 727.55 291.432 726.682 291.432V293.432C727.686 293.432 728.753 293.329 729.881 293.129L729.531 291.159ZM726.682 291.432C724.022 291.432 722.382 290.858 721.485 289.961L720.071 291.375C721.526 292.83 723.823 293.432 726.682 293.432V291.432ZM721.485 289.961C720.573 289.048 720.014 287.522 720.014 285.16H718.014C718.014 287.79 718.632 289.936 720.071 291.375L721.485 289.961ZM720.014 285.16V275.26H718.014V285.16H720.014ZM720.014 275.26C720.014 272.898 720.573 271.372 721.485 270.459L720.071 269.045C718.632 270.484 718.014 272.63 718.014 275.26H720.014ZM721.485 270.459C722.382 269.562 724.022 268.988 726.682 268.988V266.988C723.823 266.988 721.526 267.59 720.071 269.045L721.485 270.459ZM745.098 268.42L746.054 268.127L745.838 267.42H745.098V268.42ZM752.334 292V293H753.687L753.29 291.707L752.334 292ZM749.022 292L748.06 292.272L748.266 293H749.022V292ZM747.474 286.528L748.437 286.256L748.231 285.528H747.474V286.528ZM738.798 286.528V285.528H738.042L737.836 286.256L738.798 286.528ZM737.25 292V293H738.007L738.213 292.272L737.25 292ZM734.118 292L733.162 291.708L732.767 293H734.118V292ZM741.318 268.42V267.42H740.578L740.362 268.128L741.318 268.42ZM743.154 271.228L744.116 270.955L743.159 267.581L742.193 270.953L743.154 271.228ZM739.554 283.792L738.593 283.517L738.228 284.792H739.554V283.792ZM746.718 283.792V284.792H748.042L747.68 283.519L746.718 283.792ZM744.142 268.713L751.378 292.293L753.29 291.707L746.054 268.127L744.142 268.713ZM752.334 291H749.022V293H752.334V291ZM749.985 291.728L748.437 286.256L746.512 286.8L748.06 292.272L749.985 291.728ZM747.474 285.528H738.798V287.528H747.474V285.528ZM737.836 286.256L736.288 291.728L738.213 292.272L739.761 286.8L737.836 286.256ZM737.25 291H734.118V293H737.25V291ZM735.075 292.292L742.275 268.712L740.362 268.128L733.162 291.708L735.075 292.292ZM741.318 269.42H745.098V267.42H741.318V269.42ZM742.193 270.953L738.593 283.517L740.516 284.067L744.116 271.503L742.193 270.953ZM739.554 284.792H746.718V282.792H739.554V284.792ZM747.68 283.519L744.116 270.955L742.192 271.501L745.756 284.065L747.68 283.519ZM768.039 269.644L767.404 270.417L767.404 270.417L768.039 269.644ZM768.903 278.896L769.711 279.484L769.718 279.476L768.903 278.896ZM765.591 281.128L765.303 280.17L764.106 280.529L764.719 281.619L765.591 281.128ZM771.711 292V293H773.421L772.582 291.509L771.711 292ZM768.291 292L767.418 292.489L767.704 293H768.291V292ZM762.567 281.776L763.439 281.287L763.11 280.7L762.443 280.784L762.567 281.776ZM758.571 281.704L758.647 280.707L757.571 280.624V281.704H758.571ZM758.571 292V293H759.571V292H758.571ZM755.511 292H754.511V293H755.511V292ZM755.511 268.132L755.475 267.133L754.511 267.167V268.132H755.511ZM758.571 270.652L758.534 269.653L757.571 269.688V270.652H758.571ZM758.571 279.148H757.571V280.06L758.478 280.144L758.571 279.148ZM765.735 271.516L765.138 272.319L765.138 272.319L765.735 271.516ZM761.775 268.988C764.51 268.988 766.321 269.527 767.404 270.417L768.673 268.871C767.068 267.553 764.703 266.988 761.775 266.988V268.988ZM767.404 270.417C768.481 271.302 769.055 272.546 769.055 274.288H771.055C771.055 272.046 770.284 270.194 768.673 268.871L767.404 270.417ZM769.055 274.288V275.188H771.055V274.288H769.055ZM769.055 275.188C769.055 276.383 768.729 277.415 768.088 278.316L769.718 279.476C770.612 278.217 771.055 276.777 771.055 275.188H769.055ZM768.094 278.308C767.473 279.161 766.567 279.791 765.303 280.17L765.878 282.086C767.494 281.601 768.796 280.743 769.711 279.484L768.094 278.308ZM764.719 281.619L770.839 292.491L772.582 291.509L766.462 280.637L764.719 281.619ZM771.711 291H768.291V293H771.711V291ZM769.163 291.511L763.439 281.287L761.694 282.265L767.418 292.489L769.163 291.511ZM762.443 280.784C762.322 280.799 762.001 280.812 761.415 280.812V282.812C761.98 282.812 762.427 282.801 762.691 282.768L762.443 280.784ZM761.415 280.812C760.48 280.812 759.557 280.777 758.647 280.707L758.494 282.701C759.456 282.775 760.43 282.812 761.415 282.812V280.812ZM757.571 281.704V292H759.571V281.704H757.571ZM758.571 291H755.511V293H758.571V291ZM756.511 292V268.132H754.511V292H756.511ZM755.546 269.131C758.23 269.036 760.304 268.988 761.775 268.988V266.988C760.269 266.988 758.167 267.036 755.475 267.133L755.546 269.131ZM761.703 269.58C760.893 269.58 759.835 269.604 758.534 269.653L758.608 271.651C759.898 271.604 760.928 271.58 761.703 271.58V269.58ZM757.571 270.652V279.148H759.571V270.652H757.571ZM758.478 280.144C759.791 280.265 760.905 280.328 761.811 280.328V278.328C760.989 278.328 759.942 278.271 758.663 278.152L758.478 280.144ZM761.811 280.328C763.648 280.328 765.212 279.959 766.329 279.051C767.486 278.111 767.995 276.735 767.995 275.116H765.995C765.995 276.305 765.639 277.035 765.068 277.499C764.457 277.995 763.429 278.328 761.811 278.328V280.328ZM767.995 275.116V274.396H765.995V275.116H767.995ZM767.995 274.396C767.995 272.868 767.486 271.571 766.331 270.713L765.138 272.319C765.664 272.709 765.995 273.332 765.995 274.396H767.995ZM766.331 270.713C765.23 269.895 763.62 269.58 761.703 269.58V271.58C763.482 271.58 764.559 271.889 765.138 272.319L766.331 270.713ZM790.65 268.42L791.607 268.708L791.995 267.42H790.65V268.42ZM783.558 292V293H784.301L784.515 292.288L783.558 292ZM779.526 292L778.566 292.28L778.776 293H779.526V292ZM772.65 268.42V267.42H771.316L771.69 268.7L772.65 268.42ZM775.89 268.42L776.854 268.156L776.653 267.42H775.89V268.42ZM781.542 289.048L780.577 289.312L781.524 292.766L782.503 289.322L781.542 289.048ZM787.41 268.42V267.42H786.654L786.448 268.146L787.41 268.42ZM789.692 268.132L782.6 291.712L784.515 292.288L791.607 268.708L789.692 268.132ZM783.558 291H779.526V293H783.558V291ZM780.486 291.72L773.61 268.14L771.69 268.7L778.566 292.28L780.486 291.72ZM772.65 269.42H775.89V267.42H772.65V269.42ZM774.925 268.684L780.577 289.312L782.506 288.784L776.854 268.156L774.925 268.684ZM782.503 289.322L788.371 268.694L786.448 268.146L780.58 288.774L782.503 289.322ZM787.41 269.42H790.65V267.42H787.41V269.42ZM800.962 268.42L801.918 268.127L801.701 267.42H800.962V268.42ZM808.198 292V293H809.551L809.154 291.707L808.198 292ZM804.886 292L803.923 292.272L804.129 293H804.886V292ZM803.338 286.528L804.3 286.256L804.094 285.528H803.338V286.528ZM794.662 286.528V285.528H793.905L793.699 286.256L794.662 286.528ZM793.114 292V293H793.87L794.076 292.272L793.114 292ZM789.982 292L789.025 291.708L788.631 293H789.982V292ZM797.182 268.42V267.42H796.441L796.225 268.128L797.182 268.42ZM799.018 271.228L799.98 270.955L799.023 267.581L798.056 270.953L799.018 271.228ZM795.418 283.792L794.456 283.517L794.091 284.792H795.418V283.792ZM802.582 283.792V284.792H803.905L803.544 283.519L802.582 283.792ZM800.006 268.713L807.242 292.293L809.154 291.707L801.918 268.127L800.006 268.713ZM808.198 291H804.886V293H808.198V291ZM805.848 291.728L804.3 286.256L802.375 286.8L803.923 292.272L805.848 291.728ZM803.338 285.528H794.662V287.528H803.338V285.528ZM793.699 286.256L792.151 291.728L794.076 292.272L795.624 286.8L793.699 286.256ZM793.114 291H789.982V293H793.114V291ZM790.938 292.292L798.138 268.712L796.225 268.128L789.025 291.708L790.938 292.292ZM797.182 269.42H800.962V267.42H797.182V269.42ZM798.056 270.953L794.456 283.517L796.379 284.067L799.979 271.503L798.056 270.953ZM795.418 284.792H802.582V282.792H795.418V284.792ZM803.544 283.519L799.98 270.955L798.056 271.501L801.62 284.065L803.544 283.519ZM814.434 268.42H815.434V267.42H814.434V268.42ZM814.434 289.3H813.434V290.3H814.434V289.3ZM823.794 289.3H824.794V288.3H823.794V289.3ZM823.794 292V293H824.794V292H823.794ZM811.374 292H810.374V293H811.374V292ZM811.374 268.42V267.42H810.374V268.42H811.374ZM813.434 268.42V289.3H815.434V268.42H813.434ZM814.434 290.3H823.794V288.3H814.434V290.3ZM822.794 289.3V292H824.794V289.3H822.794ZM823.794 291H811.374V293H823.794V291ZM812.374 292V268.42H810.374V292H812.374ZM811.374 269.42H814.434V267.42H811.374V269.42ZM843.061 268.42H844.061V267.42H843.061V268.42ZM843.061 292V293H844.061V292H843.061ZM840.001 292H839.001V293H840.001V292ZM840.001 281.2H841.001V280.2H840.001V281.2ZM830.641 281.2V280.2H829.641V281.2H830.641ZM830.641 292V293H831.641V292H830.641ZM827.581 292H826.581V293H827.581V292ZM827.581 268.42V267.42H826.581V268.42H827.581ZM830.641 268.42H831.641V267.42H830.641V268.42ZM830.641 278.464H829.641V279.464H830.641V278.464ZM840.001 278.464V279.464H841.001V278.464H840.001ZM840.001 268.42V267.42H839.001V268.42H840.001ZM842.061 268.42V292H844.061V268.42H842.061ZM843.061 291H840.001V293H843.061V291ZM841.001 292V281.2H839.001V292H841.001ZM840.001 280.2H830.641V282.2H840.001V280.2ZM829.641 281.2V292H831.641V281.2H829.641ZM830.641 291H827.581V293H830.641V291ZM828.581 292V268.42H826.581V292H828.581ZM827.581 269.42H830.641V267.42H827.581V269.42ZM829.641 268.42V278.464H831.641V268.42H829.641ZM830.641 279.464H840.001V277.464H830.641V279.464ZM841.001 278.464V268.42H839.001V278.464H841.001ZM840.001 269.42H843.061V267.42H840.001V269.42ZM862.072 270.004L861.345 270.691L861.345 270.691L862.072 270.004ZM862.072 290.416L861.345 289.729L861.345 289.729L862.072 290.416ZM850.192 290.416L849.465 291.103L849.465 291.103L850.192 290.416ZM850.192 270.004L850.918 270.691L850.918 270.691L850.192 270.004ZM852.532 271.876L851.835 271.158L851.83 271.164L851.825 271.169L852.532 271.876ZM852.532 288.544L851.814 289.24L851.824 289.251L851.835 289.262L852.532 288.544ZM859.696 288.544L860.403 289.251L860.403 289.251L859.696 288.544ZM859.696 271.912L858.978 272.608L858.988 272.619L858.999 272.63L859.696 271.912ZM856.132 268.988C858.67 268.988 860.334 269.623 861.345 270.691L862.798 269.317C861.265 267.697 858.969 266.988 856.132 266.988V268.988ZM861.345 270.691C862.389 271.794 862.98 273.424 862.98 275.728H864.98C864.98 273.088 864.298 270.902 862.798 269.317L861.345 270.691ZM862.98 275.728V284.692H864.98V275.728H862.98ZM862.98 284.692C862.98 286.996 862.389 288.626 861.345 289.729L862.798 291.103C864.298 289.518 864.98 287.332 864.98 284.692H862.98ZM861.345 289.729C860.334 290.797 858.67 291.432 856.132 291.432V293.432C858.969 293.432 861.265 292.723 862.798 291.103L861.345 289.729ZM856.132 291.432C853.593 291.432 851.929 290.797 850.918 289.729L849.465 291.103C850.998 292.723 853.294 293.432 856.132 293.432V291.432ZM850.918 289.729C849.874 288.626 849.284 286.996 849.284 284.692H847.284C847.284 287.332 847.965 289.518 849.465 291.103L850.918 289.729ZM849.284 284.692V275.728H847.284V284.692H849.284ZM849.284 275.728C849.284 273.424 849.874 271.794 850.918 270.691L849.465 269.317C847.965 270.902 847.284 273.088 847.284 275.728H849.284ZM850.918 270.691C851.929 269.623 853.593 268.988 856.132 268.988V266.988C853.294 266.988 850.998 267.697 849.465 269.317L850.918 270.691ZM856.132 269.688C854.391 269.688 852.901 270.124 851.835 271.158L853.228 272.594C853.795 272.044 854.704 271.688 856.132 271.688V269.688ZM851.825 271.169C850.784 272.209 850.344 273.668 850.344 275.368H852.344C852.344 273.996 852.695 273.127 853.239 272.583L851.825 271.169ZM850.344 275.368V285.016H852.344V275.368H850.344ZM850.344 285.016C850.344 286.719 850.785 288.18 851.814 289.24L853.249 287.848C852.694 287.276 852.344 286.385 852.344 285.016H850.344ZM851.835 289.262C852.901 290.296 854.391 290.732 856.132 290.732V288.732C854.704 288.732 853.795 288.376 853.228 287.826L851.835 289.262ZM856.132 290.732C857.87 290.732 859.357 290.297 860.403 289.251L858.989 287.837C858.45 288.375 857.562 288.732 856.132 288.732V290.732ZM860.403 289.251C861.462 288.192 861.92 286.726 861.92 285.016H859.92C859.92 286.378 859.561 287.264 858.989 287.837L860.403 289.251ZM861.92 285.016V275.404H859.92V285.016H861.92ZM861.92 275.404C861.92 273.696 861.463 272.234 860.392 271.194L858.999 272.63C859.561 273.174 859.92 274.04 859.92 275.404H861.92ZM860.413 271.216C859.369 270.139 857.878 269.688 856.132 269.688V271.688C857.554 271.688 858.439 272.053 858.978 272.608L860.413 271.216Z" fill="white"/>
<g filter="url(#filter0_d_204_16)">
<path d="M755.328 101.395L757.968 98.7821L760.543 96.2347V93.426L763.184 91.7931L764.57 90.1601L769.521 88.0046L772.624 86.3717L775.661 85L777.84 86.3717H782.065L783.979 85H786.818L790.119 86.3717H794.872L796.258 85H801.473L803.322 86.3717H806.689L810.187 88.0046H814.016L819.892 90.1601L823.457 91.7931L826.295 93.426L828.21 96.2347L831.049 98.7821V101.395L833.359 104.399V106.294L835.01 109.102L833.359 111.65L835.01 115.373L836 118.704V120.533L835.01 122.884V126.411L836 130.135L835.01 132.486L833.359 134.576L831.049 136.928V140.194L828.21 143.264L825.371 145.093L823.457 145.811V148.162L819.892 150.252H818.506L816.327 151.689H814.016L812.366 152.604H810.187L808.801 153.976L805.5 152.604H803.322V155.152V158.679L804.51 161.03L806.689 165.733L808.801 170.371L812.366 172.265L818.506 174.812L822.005 176.706H828.21L826.295 178.339H823.457L819.892 180.234H816.327H812.366V183.957L814.016 185.851L816.327 189.77V194.473L814.016 190.946L810.187 189.77L805.5 187.223L801.473 182.324V185.851V189.77L796.258 198V194.473L794.872 190.946L793.684 187.223H790.119L788.204 189.77L786.818 192.121L783.979 194.473L780.876 196.563V194.473L782.065 190.946V185.851L779.952 187.223L775.661 189.77L772.624 192.121L771.172 194.473V190.946L772.624 187.223L775.661 182.324L772.624 183.957L767.409 185.851L761.995 187.223H755.328L760.543 183.957L764.57 180.234L769.521 176.706L772.624 172.265L775.661 168.999L777.84 165.733L779.952 161.748L780.876 158.679L782.065 153.976L780.876 151.689L779.952 152.604L777.84 153.976L775.661 155.152H772.624H769.521H767.409L764.57 153.976V152.604H761.995L760.543 150.252L757.968 148.162L755.328 145.811L753.941 143.264L752.489 140.194V136.928L751.103 134.576L749.914 131.049V128.959V126.411L748 125.236V122.884V120.533L749.914 118.704V116.548L751.103 115.373V113.74L752.489 111.65V110.474L753.941 109.102V106.294V104.399L755.328 101.395Z" fill="white"/>
<path d="M755.328 101.395L757.968 98.7821L760.543 96.2347V93.426L763.184 91.7931L764.57 90.1601L769.521 88.0046L772.624 86.3717L775.661 85L777.84 86.3717H782.065L783.979 85H786.818L790.119 86.3717H794.872L796.258 85H801.473L803.322 86.3717H806.689L810.187 88.0046H814.016L819.892 90.1601L823.457 91.7931L826.295 93.426L828.21 96.2347L831.049 98.7821V101.395L833.359 104.399V106.294L835.01 109.102L833.359 111.65L835.01 115.373L836 118.704V120.533L835.01 122.884V126.411L836 130.135L835.01 132.486L833.359 134.576L831.049 136.928V140.194L828.21 143.264L825.371 145.093L823.457 145.811V148.162L819.892 150.252H818.506L816.327 151.689H814.016L812.366 152.604H810.187L808.801 153.976L805.5 152.604H803.322V155.152V158.679L804.51 161.03L806.689 165.733L808.801 170.371L812.366 172.265L818.506 174.812L822.005 176.706H828.21L826.295 178.339H823.457L819.892 180.234H816.327H812.366V183.957L814.016 185.851L816.327 189.77V194.473L814.016 190.946L810.187 189.77L805.5 187.223L801.473 182.324V185.851V189.77L796.258 198V194.473L794.872 190.946L793.684 187.223H790.119L788.204 189.77L786.818 192.121L783.979 194.473L780.876 196.563V194.473L782.065 190.946V185.851L779.952 187.223L775.661 189.77L772.624 192.121L771.172 194.473V190.946L772.624 187.223L775.661 182.324L772.624 183.957L767.409 185.851L761.995 187.223H755.328L760.543 183.957L764.57 180.234L769.521 176.706L772.624 172.265L775.661 168.999L777.84 165.733L779.952 161.748L780.876 158.679L782.065 153.976L780.876 151.689L779.952 152.604L777.84 153.976L775.661 155.152H772.624H769.521H767.409L764.57 153.976V152.604H761.995L760.543 150.252L757.968 148.162L755.328 145.811L753.941 143.264L752.489 140.194V136.928L751.103 134.576L749.914 131.049V128.959V126.411L748 125.236V122.884V120.533L749.914 118.704V116.548L751.103 115.373V113.74L752.489 111.65V110.474L753.941 109.102V106.294V104.399L755.328 101.395Z" stroke="black"/>
</g>
<defs>
<filter id="filter0_d_204_16" x="743.5" y="84.4337" width="97.0271" height="129.289" filterUnits="userSpaceOnUse" color-interpolation-filters="sRGB">
<feFlood flood-opacity="0" result="BackgroundImageFix"/>
<feColorMatrix in="SourceAlpha" type="matrix" values="0 0 0 0 0 0 0 0 0 0 0 0 0 0 0 0 0 0 127 0" result="hardAlpha"/>
<feOffset dy="10"/>
<feGaussianBlur stdDeviation="2"/>
<feComposite in2="hardAlpha" operator="out"/>
<feColorMatrix type="matrix" values="0 0 0 0 0 0 0 0 0 0 0 0 0 0 0 0 0 0 0.25 0"/>
<feBlend mode="normal" in2="BackgroundImageFix" result="effect1_dropShadow_204_16"/>
<feBlend mode="normal" in="SourceGraphic" in2="effect1_dropShadow_204_16" result="shape"/>
</filter>
<linearGradient id="paint0_linear_204_16" x1="207" y1="-75.0001" x2="1204" y2="641.5" gradientUnits="userSpaceOnUse">
<stop stop-color="#1C53E1"/>
<stop offset="0.494257" stop-color="#162E6D"/>
<stop offset="1" stop-color="#000103"/>
</linearGradient>
</defs>
</svg>
